<svg width="100%" height="100%" viewBox="0 0 24 24" fill="none" xmlns="http://www.w3.org/2000/svg">
<path fill-rule="evenodd" clip-rule="evenodd" d="M14.9764 3.75C14.6697 3.75 14.387 3.91447 14.2342 4.18032C14.0815 4.44609 14.0815 4.77341 14.2342 5.03918C14.387 5.30506 14.6697 5.46951 14.9764 5.46951H17.3247L12.0009 10.7824L12.0002 10.7831C11.8398 10.9444 11.75 11.163 11.75 11.3904C11.7501 11.6178 11.8399 11.8362 12.0003 11.9976C12.1607 12.1589 12.3788 12.2498 12.6062 12.25H12.6469C12.8744 12.2498 13.0923 12.1587 13.2527 11.9974L18.5366 6.687V9.04878C18.5366 9.35536 18.6993 9.63922 18.9645 9.79309C19.2298 9.94705 19.5568 9.94705 19.8221 9.79309C20.0873 9.63923 20.25 9.35537 20.25 9.04878V4.60976C20.25 4.38221 20.1601 4.16367 19.9996 4.00232C19.839 3.84083 19.6209 3.75 19.3933 3.75H14.9764Z" />
<path fill-rule="evenodd" clip-rule="evenodd" d="M5.63934 3.75C5.1382 3.75 4.65764 3.94916 4.30333 4.30366C3.94901 4.65816 3.75 5.1389 3.75 5.64018V18.3598C3.75 18.8611 3.94901 19.3418 4.30333 19.6963C4.65764 20.0508 5.1382 20.25 5.63934 20.25H18.3607C18.8618 20.25 19.3424 20.0508 19.6967 19.6963C20.051 19.3418 20.25 18.8611 20.25 18.3598V13.2752C20.25 13.0439 20.1574 12.8221 19.9927 12.6595C19.8499 12.5185 19.6632 12.4322 19.4653 12.4138L19.3754 12.4102C19.1467 12.4106 18.9274 12.5017 18.7656 12.6635C18.6033 12.8258 18.5123 13.0459 18.5123 13.2752V18.3598C18.5123 18.4001 18.4963 18.4388 18.4678 18.4672C18.4394 18.4957 18.4008 18.5117 18.3607 18.5117H5.63934C5.5992 18.5117 5.5606 18.4957 5.53216 18.4672C5.50373 18.4388 5.48771 18.4001 5.48771 18.3598V5.63198C5.48771 5.59169 5.50373 5.55302 5.53217 5.52456C5.5606 5.49612 5.59919 5.48014 5.63934 5.48014H10.4508C10.7599 5.48014 11.0453 5.31516 11.1998 5.04757C11.3542 4.77994 11.3542 4.4502 11.1998 4.18257C11.0453 3.91495 10.7599 3.75 10.4508 3.75H5.63934Z" />
</svg>
