<svg width="32" height="32" viewBox="0 0 32 32" fill="none" xmlns="http://www.w3.org/2000/svg">
<path d="M16 6.98086C18.9391 6.98086 19.2871 6.99375 20.443 7.04531C21.5172 7.09258 22.0973 7.27305 22.484 7.42344C22.9953 7.62109 23.3648 7.86172 23.7473 8.24414C24.134 8.63086 24.3703 8.99609 24.568 9.50742C24.7184 9.89414 24.8988 10.4785 24.9461 11.5484C24.9977 12.7086 25.0105 13.0566 25.0105 15.9914C25.0105 18.9305 24.9977 19.2785 24.9461 20.4344C24.8988 21.5086 24.7184 22.0887 24.568 22.4754C24.3703 22.9867 24.1297 23.3563 23.7473 23.7387C23.3605 24.1254 22.9953 24.3617 22.484 24.5594C22.0973 24.7098 21.5129 24.8902 20.443 24.9375C19.2828 24.9891 18.9348 25.002 16 25.002C13.0609 25.002 12.7129 24.9891 11.557 24.9375C10.4828 24.8902 9.90274 24.7098 9.51602 24.5594C9.00469 24.3617 8.63516 24.1211 8.25273 23.7387C7.86602 23.352 7.62969 22.9867 7.43203 22.4754C7.28164 22.0887 7.10117 21.5043 7.05391 20.4344C7.00234 19.2742 6.98945 18.9262 6.98945 15.9914C6.98945 13.0523 7.00234 12.7043 7.05391 11.5484C7.10117 10.4742 7.28164 9.89414 7.43203 9.50742C7.62969 8.99609 7.87031 8.62656 8.25273 8.24414C8.63945 7.85742 9.00469 7.62109 9.51602 7.42344C9.90274 7.27305 10.4871 7.09258 11.557 7.04531C12.7129 6.99375 13.0609 6.98086 16 6.98086ZM16 5C13.0137 5 12.6398 5.01289 11.4668 5.06445C10.298 5.11602 9.49453 5.30508 8.79844 5.57578C8.07227 5.85937 7.45781 6.2332 6.84766 6.84766C6.2332 7.45781 5.85938 8.07227 5.57578 8.79414C5.30508 9.49453 5.11602 10.2937 5.06445 11.4625C5.01289 12.6398 5 13.0137 5 16C5 18.9863 5.01289 19.3602 5.06445 20.5332C5.11602 21.702 5.30508 22.5055 5.57578 23.2016C5.85938 23.9277 6.2332 24.5422 6.84766 25.1523C7.45781 25.7625 8.07227 26.1406 8.79414 26.4199C9.49453 26.6906 10.2938 26.8797 11.4625 26.9312C12.6355 26.9828 13.0094 26.9957 15.9957 26.9957C18.982 26.9957 19.3559 26.9828 20.5289 26.9312C21.6977 26.8797 22.5012 26.6906 23.1973 26.4199C23.9191 26.1406 24.5336 25.7625 25.1438 25.1523C25.7539 24.5422 26.132 23.9277 26.4113 23.2059C26.682 22.5055 26.8711 21.7063 26.9227 20.5375C26.9742 19.3645 26.9871 18.9906 26.9871 16.0043C26.9871 13.018 26.9742 12.6441 26.9227 11.4711C26.8711 10.3023 26.682 9.49883 26.4113 8.80273C26.1406 8.07227 25.7668 7.45781 25.1523 6.84766C24.5422 6.2375 23.9277 5.85938 23.2059 5.58008C22.5055 5.30937 21.7063 5.12031 20.5375 5.06875C19.3602 5.01289 18.9863 5 16 5Z"/>
<path d="M16 10.3496C12.8805 10.3496 10.3496 12.8805 10.3496 16C10.3496 19.1195 12.8805 21.6504 16 21.6504C19.1195 21.6504 21.6504 19.1195 21.6504 16C21.6504 12.8805 19.1195 10.3496 16 10.3496ZM16 19.6652C13.9762 19.6652 12.3348 18.0238 12.3348 16C12.3348 13.9762 13.9762 12.3348 16 12.3348C18.0238 12.3348 19.6652 13.9762 19.6652 16C19.6652 18.0238 18.0238 19.6652 16 19.6652Z"/>
<path d="M23.193 10.1261C23.193 10.8566 22.6 11.4452 21.8738 11.4452C21.1434 11.4452 20.5547 10.8523 20.5547 10.1261C20.5547 9.39562 21.1477 8.80695 21.8738 8.80695C22.6 8.80695 23.193 9.39992 23.193 10.1261Z"/>
</svg>
