<svg width="32" height="32" viewBox="0 0 32 32" fill="none" xmlns="http://www.w3.org/2000/svg">
<path d="M10.0381 26.2844H5.6148V12.0599H10.0381V26.2844ZM7.82646 10.1218C6.40634 10.1218 5.25977 8.97518 5.25977 7.56088C5.25977 6.14657 6.40634 5 7.82646 5C9.24076 5 10.3873 6.14657 10.3873 7.56088C10.3873 8.96936 9.24076 10.1218 7.82646 10.1218ZM26.5907 26.2844H22.1732V19.37C22.1732 17.7229 22.1441 15.5985 19.8742 15.5985C17.5753 15.5985 17.226 17.397 17.226 19.2536V26.2844H12.8144V12.0599H17.0514V14.0038H17.1096C17.6975 12.8863 19.1409 11.7048 21.2885 11.7048C25.7642 11.7048 26.5907 14.6498 26.5907 18.4795V26.2844Z" />
</svg>
