<svg width="24" height="24" viewBox="0 0 24 24" xmlns="http://www.w3.org/2000/svg">
<path d="M19.9894 12C20.5476 12 21.0059 11.5461 20.9433 10.9915C20.7597 9.36304 20.1339 7.80863 19.1248 6.50118C17.9091 4.92593 16.2055 3.798 14.2807 3.29376C12.3558 2.78952 10.318 2.93741 8.48614 3.7143C6.65423 4.49119 5.13143 5.85328 4.15587 7.58756C3.18031 9.32184 2.807 11.3305 3.09431 13.2995C3.38163 15.2685 4.31337 17.0868 5.74383 18.47C7.17429 19.8531 9.02281 20.7233 11.0003 20.9443C12.6417 21.1278 14.2951 20.8554 15.7821 20.1667C16.2886 19.9322 16.4385 19.3048 16.1487 18.8279C15.8589 18.3509 15.2392 18.2068 14.7254 18.4247C13.6269 18.8907 12.4218 19.0695 11.2248 18.9357C9.6914 18.7643 8.25799 18.0896 7.14877 17.017C6.03954 15.9444 5.31704 14.5345 5.09425 13.0077C4.87146 11.4809 5.16094 9.92327 5.91742 8.57846C6.6739 7.23364 7.85472 6.17744 9.27524 5.57501C10.6958 4.97259 12.2759 4.85791 13.7685 5.24891C15.2611 5.63991 16.5821 6.51455 17.5248 7.73604C18.2607 8.68948 18.7337 9.81229 18.9059 10.9929C18.9864 11.5452 19.4313 12 19.9894 12Z" />
</svg>
