<?xml version="1.0" encoding="utf-8"?>
<!-- Generator: Adobe Illustrator 26.5.0, SVG Export Plug-In . SVG Version: 6.00 Build 0)  -->
<svg version="1.1" id="Layer_1" xmlns="http://www.w3.org/2000/svg" xmlns:xlink="http://www.w3.org/1999/xlink" x="0px" y="0px"
	 viewBox="0 0 340.2 168.2" style="enable-background:new 0 0 340.2 168.2;" xml:space="preserve">
<style type="text/css">
	.st0{fill:#0A3370;}
	.st1{fill:#00B4CD;}
</style>
<polygon class="st0" points="83.9,66.1 102.2,66.1 83.9,85.4 "/>
<polygon class="st0" points="110.5,44.3 118.8,44.3 118.8,79.1 134.8,79.1 134.8,85.6 110.5,85.6 "/>
<rect x="139.5" y="55.2" class="st0" width="7.9" height="30.5"/>
<path class="st0" d="M168.4,80.2c5.2,0,6.7-5.7,6.7-9.9c0-4.1-1.4-9.7-6.6-9.7c-5.1,0-7.1,5.4-7.1,9.7
	C161.4,74.6,163.2,80.2,168.4,80.2 M153.5,41.2h7.9v17.8h0.1c2.2-2.9,5-4.6,9.1-4.6c9.4,0,12.8,7.5,12.8,15.9c0,8.3-3.4,16-12.8,16
	c-3.4,0-7-1.2-9.3-4.4h-0.1v3.7h-7.7V41.2z"/>
<path class="st0" d="M208.7,67.4c-0.2-3.8-2-7.2-6.5-7.2c-4.4,0-6.7,3.1-7,7.2H208.7z M214.1,83.9c-2.9,1.6-6.2,2.4-10.5,2.4
	c-10.1,0-15.9-5.8-15.9-15.8c0-8.8,4.7-16.1,14.1-16.1c11.3,0,14.5,7.8,14.5,18.4h-21.1c0.4,4.9,3.8,7.7,8.7,7.7
	c3.8,0,7.2-1.4,10.1-3.1V83.9z"/>
<path class="st0" d="M221.5,55.2h7v6.9h0.1c0.4-2.8,3.6-7.6,8.3-7.6c0.8,0,1.6,0,2.4,0.2v8c-0.7-0.4-2.1-0.7-3.6-0.7
	c-6.5,0-6.5,8.1-6.5,12.4v11.2h-7.9V55.2z"/>
<path class="st0" d="M248.3,61h-5.9v-5.8h5.9v-6.1l7.9-2.5v8.6h7V61h-7v14.2c0,2.6,0.7,5,3.7,5c1.4,0,2.8-0.3,3.6-0.8l0.2,6.3
	c-1.7,0.5-3.5,0.7-5.9,0.7c-6.2,0-9.6-3.8-9.6-9.9V61z"/>
<path class="st0" d="M282.7,77.4h0.1l7.3-22.3h8l-11.4,30.2c-2.5,6.7-4.4,13.4-12.7,13.4c-1.9,0-3.8-0.3-5.6-0.8l0.5-5.9
	c1,0.4,2.1,0.5,4.1,0.5c3.2,0,5.1-2.2,5.1-5.4l-11.7-32h8.8L282.7,77.4z"/>
<path class="st0" d="M148.3,47.2c0,2.7-2.2,4.8-4.8,4.8c-2.7,0-4.8-2.2-4.8-4.8c0-2.7,2.2-4.8,4.8-4.8
	C146.2,42.3,148.3,44.5,148.3,47.2"/>
<polygon class="st1" points="83.9,85.4 83.9,41.2 42,85.4 "/>
<polygon class="st0" points="42.1,105.9 44.4,105.9 44.4,120.3 53.3,120.3 53.3,122.4 42.1,122.4 "/>
<g>
	<path class="st0" d="M64.8,116.6c0-2.2-1.6-4.1-3.9-4.1c-2.4,0-4,1.8-4,4.1c0,2.2,1.6,4.1,4,4.1C63.2,120.7,64.8,118.8,64.8,116.6
		 M54.7,116.6c0-3.5,2.4-6.1,6.2-6.1c3.7,0,6.1,2.6,6.1,6.1c0,3.5-2.4,6.1-6.1,6.1C57.1,122.7,54.7,120.1,54.7,116.6"/>
	<path class="st0" d="M78.9,116.6c0-2.4-1.6-4.1-3.9-4.1c-2.3,0-3.9,1.7-3.9,4.1c0,2.4,1.6,4.1,3.9,4.1
		C77.2,120.7,78.9,119,78.9,116.6 M81,110.8v11.7h-1.9l0-1.7c-0.9,1.2-2.5,2-4.4,2c-3.4,0-5.8-2.5-5.8-6.1c0-3.6,2.4-6.1,5.8-6.1
		c1.9,0,3.5,0.8,4.4,2l0-1.7H81z"/>
	<path class="st0" d="M94.7,116v6.5h-2.2v-6.3c0-2.2-1.2-3.5-3.1-3.5c-2.1,0-3.6,1.5-3.6,3.6v6.2h-2.2v-11.7h2l0,1.6
		c1-1.2,2.5-1.8,4.2-1.8C92.7,110.6,94.7,112.7,94.7,116"/>
	<path class="st0" d="M96.5,120.9l1.1-1.6c1,0.9,2.5,1.4,4.2,1.4c1.7,0,2.7-0.6,2.7-1.6c0-0.9-0.8-1.4-2.9-1.7
		c-3.1-0.4-4.7-1.5-4.7-3.5c0-2.1,2-3.5,5-3.5c1.8,0,3.3,0.4,4.6,1.4l-1,1.6c-1.1-0.8-2.2-1.1-3.5-1.1c-1.9,0-2.9,0.5-2.9,1.5
		c0,0.9,0.8,1.3,2.7,1.6c3.5,0.4,4.9,1.5,4.9,3.6c0,2.1-2,3.5-4.9,3.5C99.8,122.7,98,122.1,96.5,120.9"/>
	<path class="st0" d="M118.6,109.9v0.8h3.6v1.9h-3.6v9.7h-2.2v-9.7h-2.2v-1.9h2.2v-0.8c0-2.8,1.7-4.3,4.1-4.3c1,0,1.9,0.3,2.8,0.9
		l-0.9,1.6c-0.6-0.4-1.1-0.6-1.8-0.6C119.4,107.5,118.6,108.2,118.6,109.9"/>
	<path class="st0" d="M133.5,116.6c0-2.2-1.6-4.1-3.9-4.1c-2.4,0-4,1.8-4,4.1c0,2.2,1.6,4.1,4,4.1
		C132,120.7,133.5,118.8,133.5,116.6 M123.4,116.6c0-3.5,2.4-6.1,6.2-6.1c3.7,0,6.1,2.6,6.1,6.1c0,3.5-2.4,6.1-6.1,6.1
		C125.8,122.7,123.4,120.1,123.4,116.6"/>
	<path class="st0" d="M146.3,111.5l-1,1.8c-0.7-0.4-1.3-0.6-2-0.6c-2,0-3.3,1.6-3.3,4v5.7h-2.2v-11.7h2l0,2c0.9-1.5,2.1-2.2,3.7-2.2
		C144.6,110.6,145.7,110.9,146.3,111.5"/>
	<path class="st0" d="M158,110.8h3.2v3H158v8.7h-3.8v-8.7h-2.1v-3h2.1v-0.6c0-3.3,2.4-4.6,4.8-4.6c1.3,0,2.4,0.4,3.3,1.1l-1.3,2.3
		c-0.5-0.3-0.9-0.5-1.5-0.5c-0.9,0-1.6,0.5-1.6,1.7V110.8z"/>
	<path class="st0" d="M172.6,111.7l-1.6,2.7c-0.7-0.4-1.2-0.6-1.8-0.6c-1.5,0-2.5,1-2.5,3v5.7H163v-11.7h3.2l0.3,1.5
		c0.8-1.2,1.9-1.7,3.1-1.7C170.6,110.5,171.8,110.9,172.6,111.7"/>
	<path class="st0" d="M176.7,115.6h5.1c-0.1-1.3-1-2.1-2.5-2.1C177.8,113.4,176.8,114.2,176.7,115.6 M185.2,117.7h-8.6
		c0.2,1.2,1.3,2,3,2c1.1,0,2.3-0.4,3.1-1l1.9,2.1c-1.3,1.2-3.2,1.9-5.2,1.9c-4.1,0-6.6-2.3-6.6-6.1c0-3.6,2.5-6.1,6.3-6.1
		C183.5,110.5,185.9,113.4,185.2,117.7"/>
	<path class="st0" d="M190.5,115.6h5.1c-0.1-1.3-1-2.1-2.5-2.1C191.6,113.4,190.6,114.2,190.5,115.6 M199,117.7h-8.6
		c0.2,1.2,1.3,2,3,2c1.1,0,2.3-0.4,3.1-1l1.9,2.1c-1.3,1.2-3.2,1.9-5.2,1.9c-4.1,0-6.6-2.3-6.6-6.1c0-3.6,2.5-6.1,6.3-6.1
		C197.3,110.5,199.7,113.4,199,117.7"/>
	<path class="st0" d="M215.1,122c-1,0.5-2,0.7-3.1,0.7c-2.4,0-4.1-1.2-4.1-4.5v-4.4h-2v-2.9h2v-2.9l3.7-0.4v3.3h2.9v2.9h-2.9v4.4
		c0,1,0.5,1.4,1.3,1.4c0.4,0,1-0.1,1.3-0.3L215.1,122z"/>
	<path class="st0" d="M228.7,115.8v6.6H225v-6.4c0-1.5-0.8-2.4-2.1-2.4c-1.5,0-2.4,1.1-2.4,2.6v6.1h-3.7v-16.5h3.7v6.1
		c0.9-1,2.1-1.5,3.6-1.5C226.9,110.5,228.7,112.6,228.7,115.8"/>
	<path class="st0" d="M230.8,110.8h3.7v11.7h-3.7V110.8z M230.5,107.6c0-1.2,0.9-2,2.2-2s2.2,0.8,2.2,2c0,1.2-0.9,2-2.2,2
		S230.5,108.8,230.5,107.6"/>
	<path class="st0" d="M248.8,115.8v6.6h-3.7v-6.4c0-1.5-0.8-2.4-2.1-2.4c-1.4,0-2.4,1.1-2.4,2.6v6.1h-3.7v-11.7h3.2l0.2,1.4
		c0.9-1,2.2-1.6,3.8-1.6C246.9,110.5,248.8,112.5,248.8,115.8"/>
</g>
<polygon class="st0" points="258.2,122.4 254.7,117.8 254.7,122.4 251,122.4 251,105.9 254.7,105.9 254.7,115.2 257.9,110.8 
	262.1,110.8 257.9,116.3 262.8,122.4 "/>
<path class="st0" d="M266.6,115.6h5.1c-0.1-1.3-1-2.1-2.5-2.1C267.7,113.4,266.8,114.2,266.6,115.6 M275.2,117.7h-8.6
	c0.2,1.2,1.3,2,3,2c1.1,0,2.3-0.4,3.1-1l1.9,2.1c-1.3,1.2-3.2,1.9-5.2,1.9c-4.1,0-6.6-2.3-6.6-6.1c0-3.6,2.5-6.1,6.3-6.1
	C273.4,110.5,275.8,113.4,275.2,117.7"/>
<path class="st0" d="M286.9,111.7l-1.6,2.7c-0.7-0.4-1.2-0.6-1.8-0.6c-1.5,0-2.5,1-2.5,3v5.7h-3.7v-11.7h3.2l0.3,1.5
	c0.8-1.2,1.9-1.7,3.1-1.7C285,110.5,286.1,110.9,286.9,111.7"/>
<path class="st0" d="M287.3,121.2l1.4-2.5c1.1,0.7,2.7,1.1,4.2,1.1c1,0,1.5-0.3,1.5-0.8c0-0.5-0.5-0.8-1.8-0.9
	c-2.9-0.2-4.8-1.6-4.8-3.7c0-2.3,2-3.8,5.2-3.8c1.9,0,3.6,0.5,4.7,1.3l-1.4,2.5c-0.9-0.5-1.9-0.8-3.1-0.8c-1.2,0-1.8,0.3-1.8,0.8
	c0,0.5,0.4,0.7,1.6,0.8c3.3,0.3,5.1,1.5,5.1,3.8c0,2.4-2,3.8-5.4,3.8C290.5,122.7,288.7,122.1,287.3,121.2"/>
</svg>
