<svg width="140" height="32" viewBox="0 0 140 32" fill="none" xmlns="http://www.w3.org/2000/svg">
<path d="M55.4946 0.617925C54.9711 0.617925 54.4594 0.776387 54.0243 1.07326C53.5891 1.37014 53.2499 1.7921 53.0498 2.28574C52.8496 2.77939 52.7973 3.32255 52.8996 3.84651C53.002 4.37047 53.2542 4.85168 53.6245 5.22927C53.9949 5.60685 54.4666 5.86385 54.98 5.96775C55.4935 6.07164 56.0256 6.01776 56.509 5.81293C56.9924 5.6081 57.4055 5.26152 57.6959 4.81703C57.9863 4.37254 58.141 3.85012 58.1405 3.31586C58.1391 2.60029 57.8598 1.91449 57.3638 1.40877C56.8678 0.903044 56.1956 0.618653 55.4946 0.617925ZM135.508 7.68551L131.519 20.0386H131.451L127.462 7.68551H122.686L129.03 25.4621C129.03 27.269 127.978 28.48 126.23 28.48C125.176 28.48 124.549 28.389 124.011 28.1848L123.719 31.4317C124.709 31.7312 125.735 31.8854 126.768 31.8896C131.273 31.8896 132.281 28.2069 133.649 24.4552L139.878 7.68551H135.508ZM118.989 21.5945C117.368 21.5945 116.995 20.2455 116.995 18.7807V10.8883H120.805V7.68551H116.995V2.88275L112.735 4.30068V7.68551H109.6V10.8883H112.735V19.5476C112.735 22.9103 114.573 25.0648 117.913 25.0648C118.972 25.0868 120.029 24.9559 121.051 24.6759L120.916 21.1779C120.319 21.4824 119.656 21.6258 118.989 21.5945ZM102.024 11.5752H101.978V7.68551H98.1621V24.6152H102.422V18.4165C102.422 15.9917 102.422 11.52 105.895 11.52C106.657 11.52 107.419 11.6579 107.8 11.8869V7.4731C107.376 7.36148 106.938 7.31499 106.5 7.33517C103.951 7.34344 102.216 9.99723 102.024 11.5752ZM83.7351 14.549C83.9351 12.2841 85.1459 10.5683 87.5891 10.5683C90.0324 10.5683 90.9729 12.4221 91.1027 14.549H83.7351ZM87.2297 7.27448C82.054 7.27448 79.4973 11.3241 79.4973 16.2428C79.4973 21.8234 82.7027 25.0483 88.1946 25.0483C90.5243 25.0483 92.3405 24.5931 93.9108 23.6993V20.0993C92.2891 21.0152 90.481 21.8152 88.3729 21.8152C85.6837 21.8152 83.8243 20.2593 83.6216 17.5365H95.1189C95.1432 11.611 93.3945 7.28827 87.2297 7.28827V7.27448ZM69.1 21.7103C66.2297 21.7103 65.2891 18.6207 65.2891 16.1931C65.2891 13.8152 66.3864 10.7945 69.1675 10.7945C71.9486 10.7945 72.7567 13.931 72.7567 16.1959C72.7567 18.5517 71.9459 21.7103 69.1 21.7103ZM70.4216 7.38758C68.1351 7.38758 66.6108 8.35034 65.4243 9.97517H65.2216V0.137924H60.9621V24.8441H65.2216V22.7834H65.2891C66.5675 24.6152 68.5837 25.2662 70.4243 25.2662C75.5594 25.2662 77.4513 20.9434 77.4513 16.2759C77.4378 11.5752 75.554 7.38758 70.4216 7.38758ZM53.3432 24.6152H57.6V7.68551H53.3432V24.6152ZM41.9135 1.73792H37.4297V24.8441H50.654V21.1834H41.9135V1.73792Z" fill="#0A3370"/>
<path d="M22.8622 24.6152V0L0 24.6152H22.8622Z" fill="#05B3CB"/>
<path d="M22.8622 13.8621H32.8622L22.8622 24.6372V13.8621Z" fill="#0A3370"/>
</svg>
