<svg width="30" height="28" viewBox="0 0 30 28" fill="none" xmlns="http://www.w3.org/2000/svg">
<path d="M16.4266 2.15451C15.9776 0.772546 14.0224 0.772537 13.5734 2.15451L11.1303 9.67376H3.22405C1.77097 9.67376 1.1668 11.5332 2.34237 12.3873L8.73863 17.0344L6.29548 24.5537C5.84645 25.9356 7.42816 27.0849 8.60374 26.2307L15 21.5836L21.3963 26.2307C22.5718 27.0848 24.1536 25.9357 23.7045 24.5537L21.2614 17.0344L27.6576 12.3873C28.8332 11.5332 28.229 9.67376 26.776 9.67376H18.8697L16.4266 2.15451ZM9.03252 17.248C9.03225 17.2478 9.03199 17.2476 9.03172 17.2474L9.03252 17.248Z" stroke="#FFFFFF" stroke-width="2" stroke-linejoin="round"/>
</svg>
