<svg width="100%" height="100%" viewBox="0 0 20 20" fill="none" xmlns="http://www.w3.org/2000/svg">
<path d="M3.4168 17.0833H16.5839C17.9303 17.0833 18.7696 15.6514 18.0964 14.5109L11.5129 3.35532C10.8397 2.21489 9.16099 2.21489 8.48778 3.35532L1.90425 14.5109C1.23104 15.6514 2.07037 17.0833 3.4168 17.0833ZM10.0003 11.0811C9.51946 11.0811 9.12602 10.6952 9.12602 10.2236V8.50869C9.12602 8.03708 9.51946 7.65122 10.0003 7.65122C10.4812 7.65122 10.8746 8.03708 10.8746 8.50869V10.2236C10.8746 10.6952 10.4812 11.0811 10.0003 11.0811ZM10.8746 14.5109H9.12602V12.796H10.8746V14.5109Z" />
</svg>
